<svg xmlns="http://www.w3.org/2000/svg" width="197.073" height="49.098" viewBox="0 0 197.073 49.098">
  <g id="VectorLogo" transform="translate(0)">
    <path id="Path_6" data-name="Path 6" d="M438.277,610.711V605.76a53.242,53.242,0,0,1,6.23-16.774h9.585a141.179,141.179,0,0,0-15.814,21.725Z" transform="translate(-285.775 -584.546)" fill="#ffb016" fill-rule="evenodd"/>
    <path id="Path_7" data-name="Path 7" d="M438.337,614.618h22.5a69.247,69.247,0,0,0-7.109-4.314l6.79-2a44.651,44.651,0,0,0-9.584-1.916l5.75-4.156a33.639,33.639,0,0,0-9.424,1.758l3.992-6.31c-3.293,1.254-6.932,2.643-9.164,4.744l-.678.269-3.154,3.293.077,8.628Z" transform="translate(-285.813 -566.328)" fill="#ffb016" fill-rule="evenodd"/>
    <path id="Path_8" data-name="Path 8" d="M438.28,609.407v-5.669c2.145-2.943,4.156-5.685,6.3-6.923l-2.3,7.563-4,5.029Z" transform="translate(-285.769 -568.149)" fill="#f57629" fill-rule="evenodd"/>
    <path id="Path_9" data-name="Path 9" d="M466.628,607.243v-4.234c-7-1.922-13.818-1.971-20.608-1.758,4.589,1.653,9.315,3.095,13.02,6.072l7.588-.081Z" transform="translate(-269.555 -559.034)" fill="#ffb016" fill-rule="evenodd"/>
    <path id="Path_10" data-name="Path 10" d="M444.678,603.207a84.523,84.523,0,0,1,24.442,2.077v-8.065c-10.711.016-18.42,2.352-24.442,5.988Z" transform="translate(-272.367 -567.3)" fill="#ffb016" fill-rule="evenodd"/>
    <path id="Path_11" data-name="Path 11" d="M442.845,608.262c8.919-4.141,19.092-6.406,29.716-7.988v-7.907a50.077,50.077,0,0,0-29.716,15.895Z" transform="translate(-276.206 -577.464)" fill="#ffb016" fill-rule="evenodd"/>
    <path id="Path_12" data-name="Path 12" d="M440.548,615.072c5.976-4.6,11.952-8.715,17.925-12.509,4.41-2.8,8.288-5.082,12.026-8.77,6.567-6.483,4.583-7.421-2.479-5.063a35.2,35.2,0,0,0-11.581,6.112,53.143,53.143,0,0,0-15.892,20.231Z" transform="translate(-281.018 -587.552)" fill="#f57629" fill-rule="evenodd"/>
    <path id="Path_13" data-name="Path 13" d="M403.354,602.921l2.733-3.144c-5.465-3.912-13.026-3.46-15.873,2.269-2.07,4.166-1.643,9.436,2.457,12.181,3.432,2.3,8.718,2.4,13.335-.972l-2.528-2.7c-2.306,1.739-4.525,2.278-6.279,1.91-4.051-.851-4.627-6.6-2.544-9.495,1.947-2.7,5.979-2.878,8.7-.053Z" transform="translate(-389 -567.292)" fill="#fff" fill-rule="evenodd"/>
    <path id="Path_14" data-name="Path 14" d="M402.226,598.47a7.653,7.653,0,1,1-7.653,7.653,7.655,7.655,0,0,1,7.653-7.653Zm0,3.841a3.813,3.813,0,1,1-3.813,3.813,3.813,3.813,0,0,1,3.813-3.813Z" transform="translate(-377.327 -564.68)" fill="#fff" fill-rule="evenodd"/>
    <path id="Path_15" data-name="Path 15" d="M410.269,598.47a7.653,7.653,0,1,1-7.653,7.653,7.653,7.653,0,0,1,7.653-7.653Zm0,3.841a3.813,3.813,0,1,1-3.813,3.813,3.812,3.812,0,0,1,3.813-3.813Z" transform="translate(-360.477 -564.68)" fill="#fff" fill-rule="evenodd"/>
    <path id="Path_16" data-name="Path 16" d="M399.951,613.147l3.828.012.254-6.849c.087-2.386,1.919-3.29,4.212-3.55v-4.218a5.518,5.518,0,0,0-4.277,2.7v-2.346h-4.02l0,14.255Z" transform="translate(-366.066 -564.527)" fill="#fff" fill-rule="evenodd"/>
    <path id="Path_17" data-name="Path 17" d="M407.969,613.144h3.788v-9.275c0-1.947,4.955-2.238,4.955,0v9.34H420.6v-9.241c0-2.287,4.788-2.392,4.788,0v9.176h4.088v-9.807c-1.148-6.075-7.05-5.753-9.439-2.624-3.005-3.135-5.685-2.72-8.245,0v-2h-3.822v14.428Z" transform="translate(-349.264 -564.588)" fill="#fff" fill-rule="evenodd"/>
    <path id="Path_18" data-name="Path 18" d="M420.005,613.2h3.788v-9.275c0-1.947,4.952-2.238,4.952,0v9.34h3.89v-9.241c.105-5.016-4.562-7.768-8.808-3.256v-2h-3.822V613.2Z" transform="translate(-324.051 -564.645)" fill="#fff" fill-rule="evenodd"/>
    <path id="Path_19" data-name="Path 19" d="M439.086,596.9V616.64h-3.723v-2.154c-2.364,1.8-4.525,2.29-6.5,1.622-3.6-1.216-4.633-4.531-4.131-8.059.668-4.716,4.589-8.282,10.494-4.373v-6.682l3.859-.09ZM431.8,605.47a3.9,3.9,0,1,1-3.475,3.878,3.694,3.694,0,0,1,3.475-3.878Z" transform="translate(-314.397 -567.96)" fill="#fff" fill-rule="evenodd"/>
    <path id="Path_20" data-name="Path 20" d="M434.666,596.919h4.216v19.33h-4.216v-19.33Z" transform="translate(-293.34 -567.929)" fill="#fff" fill-rule="evenodd"/>
    <path id="Path_21" data-name="Path 21" d="M440.522,608.705l2.244,2.423c-3.72,2.544-6.923,2.77-9.68.975a7.6,7.6,0,0,1-2.235-10.271c3.216-5.478,12.741-4.685,12.633,5.441H433.84c-.034,3.283,5.119,3.77,6.682,1.433Zm-3.9-6.9a3.2,3.2,0,0,1,3.089,3.138h-6.18a3.2,3.2,0,0,1,3.092-3.138Z" transform="translate(-303.636 -564.693)" fill="#fff" fill-rule="evenodd"/>
    <path id="Path_22" data-name="Path 22" d="M428.13,612.725h-3.754v-1.362c-2.169,1.322-4.166,1.857-5.945,1.371a3.883,3.883,0,0,1-3.185-4.336c.161-3.432,3.537-4.667,9.009-3.813.381-3.584-3.383-2.767-7.022-2.089l-.969-3.027c5.577-1.247,10.593-1.717,11.714,3.268v10.018l.152-.031Zm-3.785-5.778c.114,2.126-.848,3.135-2.457,3.315-1.736.192-2.714.043-2.615-1.872.145-2.751,4.064-1.736,5.072-1.442Z" transform="translate(-334.036 -564.321)" fill="#fff" fill-rule="evenodd"/>
  </g>
</svg>
