<svg xmlns="http://www.w3.org/2000/svg" width="109.326" height="191" viewBox="0 0 109.326 191">
  <g id="Group_1064" data-name="Group 1064" transform="translate(-334.911 -130.987)">
    <g id="Group_1057" data-name="Group 1057" transform="translate(382.424 251.044)">
      <g id="Group_1048" data-name="Group 1048" transform="translate(43.853 48.434)">
        <path id="Path_76" data-name="Path 76" d="M372.516,173.611c-1.805-2.94-5.367-2.632-8.41-2.507-2.592-1.18-5.394-1.162-8.093-2.3-.246-.116-.751.371-.478.576,1.98,1.555,5.018,1.573,7.338,2.583a11.633,11.633,0,0,1,6.9,8.111c.08.389.648.036.612-.259a10.734,10.734,0,0,0-4.433-7.619l-.29-.2c.42-.027.813-.045,1.206-.036,1.935.063,4,.393,5.331,1.913C372.311,174,372.6,173.745,372.516,173.611Z" transform="translate(-355.01 -168.351)" fill="#ebd9b3"/>
        <path id="Path_77" data-name="Path 77" d="M370.3,181.029a.624.624,0,0,1-.612-.518,11.132,11.132,0,0,0-6.632-7.8,17.806,17.806,0,0,0-2.914-.871,11.479,11.479,0,0,1-4.54-1.77.64.64,0,0,1-.2-.728,1.013,1.013,0,0,1,.88-.652.754.754,0,0,1,.246.049,20.394,20.394,0,0,0,3.91,1.086,20.376,20.376,0,0,1,4.093,1.166l.34,0c.63-.031,1.283-.058,1.94-.058,2.328,0,4.916.331,6.422,2.788a.543.543,0,0,1,0,.59.714.714,0,0,1-.6.38h0a.557.557,0,0,1-.42-.183c-1.282-1.452-3.334-1.707-4.974-1.765a10.86,10.86,0,0,1,3.919,7.369.792.792,0,0,1-.21.6A.886.886,0,0,1,370.3,181.029Zm-13.625-11.288a13.138,13.138,0,0,0,3.669,1.251,17.685,17.685,0,0,1,3.061.921,12.193,12.193,0,0,1,6.471,6.323,10.313,10.313,0,0,0-3.843-5.349,1.99,1.99,0,0,1-.174-.116l-.1-.076a.433.433,0,0,1-.165-.478.424.424,0,0,1,.38-.317c.353-.022.693-.04,1.023-.04l.246,0a12.227,12.227,0,0,1,2.7.34,14.153,14.153,0,0,0-5.036-.34l-.434.018a.519.519,0,0,1-.2-.04,18.96,18.96,0,0,0-4.017-1.157A24.358,24.358,0,0,1,356.672,169.741Z" transform="translate(-355.357 -168.691)" fill="#bd7a43"/>
      </g>
      <g id="Group_1049" data-name="Group 1049" transform="translate(0 12.358)">
        <path id="Path_78" data-name="Path 78" d="M365.772,171.986a20.889,20.889,0,0,0,2.351-11.1c-.036-.358-.523-.085-.6.121a86.94,86.94,0,0,1-4.424,11.967,62.317,62.317,0,0,1-9.34,13.12c-3.057,3.419-5.85,6.976-7.159,11a13.787,13.787,0,0,0-.764,7.289c.067.46.581.116.733-.2a.691.691,0,0,0,.192-.358,19.734,19.734,0,0,1,.5-3.8c1.256-4.813,4.111-8.553,7.794-12.387,1.676-1.743,3.6-3.508,5.193-5.456-2,6.153-2.695,12.338,1.1,18.313.174.259.559-.089.492-.331-2.48-7.525-2.377-12.347,1.291-22.156C363.792,176.227,365.1,173.742,365.772,171.986Z" transform="translate(-345.199 -160.278)" fill="#ebd9b3"/>
        <path id="Path_79" data-name="Path 79" d="M346.378,205.39a.651.651,0,0,1-.639-.594,14.1,14.1,0,0,1,.8-7.516c1.367-4.187,4.285-7.825,7.226-11.132a60.339,60.339,0,0,0,9.277-13.017,77.573,77.573,0,0,0,4.022-10.694l.393-1.224a.971.971,0,0,1,.84-.594.6.6,0,0,1,.612.585,21.107,21.107,0,0,1-2.4,11.319c-.3.822-.791,1.881-1.274,2.9-.5,1.073-1.01,2.181-1.35,3.083-3.535,9.487-3.816,14.184-1.3,21.87a.725.725,0,0,1-.121.657.788.788,0,0,1-.612.34h0a.644.644,0,0,1-.532-.295c-3.718-5.868-3.088-11.851-1.725-16.744-.76.813-1.528,1.591-2.3,2.351-.541.541-1.073,1.072-1.582,1.6-3.2,3.334-6.359,7.114-7.686,12.2a19.522,19.522,0,0,0-.492,3.709,1.061,1.061,0,0,1-.259.59A1.157,1.157,0,0,1,346.378,205.39Zm21.7-43.222-.174.536a78.818,78.818,0,0,1-4.067,10.81,61.681,61.681,0,0,1-9.411,13.214c-2.878,3.235-5.733,6.793-7.06,10.841a13.286,13.286,0,0,0-.809,6.7l.04-.049a.348.348,0,0,0,.071-.1,20.36,20.36,0,0,1,.5-3.848c1.39-5.291,4.625-9.179,7.919-12.6.505-.536,1.046-1.068,1.586-1.613,1.216-1.22,2.471-2.48,3.588-3.821a.437.437,0,0,1,.541-.1.431.431,0,0,1,.21.523c-1.537,4.7-2.82,10.756.357,16.744-2.145-7.132-1.7-12.133,1.685-21.209.349-.934.871-2.06,1.372-3.146.478-1,.956-2.047,1.282-2.882A20.636,20.636,0,0,0,368.073,162.169Z" transform="translate(-345.543 -160.618)" fill="#bd7a43"/>
      </g>
      <g id="Group_1050" data-name="Group 1050" transform="translate(25.08 36.533)">
        <path id="Path_80" data-name="Path 80" d="M362.025,173.427a9.372,9.372,0,0,0-1.528-5.112,7.367,7.367,0,0,0-2.31-2.163c-.219-.13-.527.25-.456.46,1.457,4.308,3.074,7.53,1.363,12.271-1.05,2.923-3.508,5.43-5.237,7.968a14.588,14.588,0,0,0-2.507,7.262,10.01,10.01,0,0,0,.742,5.434c.143.313.63-.107.541-.371a.473.473,0,0,0,.17-.3,15.9,15.9,0,0,1,3.758-12.982c1.939-2.391,4.071-5.336,4.925-8.334A13.468,13.468,0,0,0,362.025,173.427Z" transform="translate(-350.811 -165.69)" fill="#ebd9b3"/>
        <path id="Path_81" data-name="Path 81" d="M352.6,200.438h0a.591.591,0,0,1-.55-.366,10.325,10.325,0,0,1-.8-5.68,15.207,15.207,0,0,1,2.583-7.458c.532-.773,1.144-1.56,1.729-2.324a21.624,21.624,0,0,0,3.463-5.541c1.439-4,.447-6.824-.822-10.4-.183-.514-.366-1.037-.541-1.582a.775.775,0,0,1,.134-.7.757.757,0,0,1,.956-.277,7.722,7.722,0,0,1,2.453,2.292,9.972,9.972,0,0,1,1.609,5.354,14.338,14.338,0,0,1-.568,4.268c-.925,3.231-3.3,6.395-5.009,8.491a15.617,15.617,0,0,0-3.669,12.655.669.669,0,0,1-.156.518.876.876,0,0,1-.156.384A.856.856,0,0,1,352.6,200.438Zm5.966-33.417c.161.46.317.912.483,1.35,1.256,3.6,2.355,6.708.813,11a22.055,22.055,0,0,1-3.6,5.778c-.612.786-1.18,1.533-1.694,2.288a14.118,14.118,0,0,0-2.435,7.038,9.561,9.561,0,0,0,.514,4.759c0-.009.018-.027.045-.04l.009-.009a16.4,16.4,0,0,1,3.857-13.228c1.658-2.038,3.973-5.1,4.844-8.178a13.011,13.011,0,0,0,.532-4,9.117,9.117,0,0,0-1.439-4.884A7.315,7.315,0,0,0,358.562,167.021Z" transform="translate(-351.156 -166.028)" fill="#bd7a43"/>
      </g>
      <g id="Group_1051" data-name="Group 1051" transform="translate(6.282 2.543)">
        <path id="Path_82" data-name="Path 82" d="M350.119,163.578c-.022-1.582-.76-3.3-.532-4.849.063-.384-.424-.174-.514.036-.943,2.114-.228,4.558-.21,6.815a48.561,48.561,0,0,1-1.805,12.066c-.089.384.442.183.55-.036a34.169,34.169,0,0,0,2.409-9.581A32.872,32.872,0,0,0,350.119,163.578Z" transform="translate(-346.607 -158.098)" fill="#ebd9b3"/>
        <path id="Path_83" data-name="Path 83" d="M347.53,178.626h0a.557.557,0,0,1-.46-.214.619.619,0,0,1-.1-.545,47.2,47.2,0,0,0,1.792-11.963,19.832,19.832,0,0,0-.134-2.006,9.694,9.694,0,0,1,.384-4.987c.192-.442.916-.666,1.224-.317a.666.666,0,0,1,.13.527,7.967,7.967,0,0,0,.246,2.659,12.739,12.739,0,0,1,.295,2.114,34.822,34.822,0,0,1-.112,4.509,34.159,34.159,0,0,1-2.453,9.706A.938.938,0,0,1,347.53,178.626Zm1.948-18.3a12.849,12.849,0,0,0,.027,3.486c.067.688.147,1.4.147,2.091a41.554,41.554,0,0,1-1.077,8.978,33.124,33.124,0,0,0,1.345-6.574,34.468,34.468,0,0,0,.107-4.393,10.234,10.234,0,0,0-.29-1.957C349.635,161.413,349.527,160.867,349.478,160.322Z" transform="translate(-346.949 -158.422)" fill="#bd7a43"/>
      </g>
      <g id="Group_1052" data-name="Group 1052" transform="translate(23.71 8.504)">
        <path id="Path_84" data-name="Path 84" d="M362.727,171.445a26.409,26.409,0,0,0-4.442-5.559c-1.055-1.037-2.217-1.922-3.369-2.86s-2.06-2.123-3.177-3.092c-.322-.295-.916.277-.769.644.916,2.288,3.508,3.754,5.385,5.206a26.481,26.481,0,0,1,5.841,6.1C362.343,172.129,362.866,171.682,362.727,171.445Z" transform="translate(-350.51 -159.423)" fill="#ebd9b3"/>
        <path id="Path_85" data-name="Path 85" d="M362.655,172.734h0a.6.6,0,0,1-.5-.268,25.983,25.983,0,0,0-5.724-6c-.367-.282-.76-.567-1.171-.858-1.676-1.211-3.58-2.578-4.357-4.536a.865.865,0,0,1,.125-.831.932.932,0,0,1,1.341-.308,19.219,19.219,0,0,1,1.484,1.47,20.435,20.435,0,0,0,1.676,1.618l.737.594c.9.719,1.823,1.461,2.668,2.288a26.405,26.405,0,0,1,4.5,5.653.673.673,0,0,1-.027.684A.947.947,0,0,1,362.655,172.734Zm-10.814-12.092a.382.382,0,0,0-.112.147c.67,1.676,2.4,2.909,4.049,4.107.411.295.813.59,1.189.871a28.487,28.487,0,0,1,4.138,3.879,28.786,28.786,0,0,0-2.784-3.115c-.822-.8-1.729-1.533-2.605-2.234l-.733-.594a19.3,19.3,0,0,1-1.761-1.7C352.784,161.544,352.333,161.066,351.841,160.642Z" transform="translate(-350.849 -159.756)" fill="#bd7a43"/>
      </g>
      <g id="Group_1053" data-name="Group 1053" transform="translate(28.467 23.48)">
        <path id="Path_86" data-name="Path 86" d="M384.022,172.8c-1.957-2.829-4.808-3.392-8.093-3.821a40.686,40.686,0,0,0-8.012.085,14.681,14.681,0,0,1-4.46-.5c-3.839-1.157-7.664-2.377-10.6-5.152a.2.2,0,0,0-.094-.072l-.071-.063c-.295-.29-.836.308-.63.626.116.17.246.326.371.483.733,3.879,5,5.161,8.37,6.346,5.461,1.9,10.524,2.8,14.7,6.828a9.024,9.024,0,0,1,1.475,4.607c.018.371.55.04.594-.183.652-4.393-2.882-8.817-6.6-10.7a25.675,25.675,0,0,0-2.784-1.189c5.5-.031,11.127-.8,15.511,3.03C383.857,173.265,384.134,172.97,384.022,172.8Z" transform="translate(-351.572 -162.768)" fill="#ebd9b3"/>
        <path id="Path_87" data-name="Path 87" d="M377.459,183.114a.581.581,0,0,1-.585-.581,8.681,8.681,0,0,0-1.381-4.353c-3.235-3.1-7.092-4.317-11.172-5.608-1.09-.34-2.19-.688-3.325-1.081l-.514-.179c-3.271-1.135-7.333-2.538-8.124-6.4-.134-.152-.219-.282-.326-.416a.845.845,0,0,1-.009-.849,1,1,0,0,1,.822-.541.722.722,0,0,1,.487.2l.009.009a.5.5,0,0,1,.183.147c2.753,2.578,6.189,3.754,10.4,5.018a13.988,13.988,0,0,0,4.3.483l1.2-.08c1.309-.089,2.654-.179,3.982-.179a22.939,22.939,0,0,1,2.931.174c3.387.451,6.346,1.059,8.4,4.013a.64.64,0,0,1,.009.657.7.7,0,0,1-.612.393h0a.609.609,0,0,1-.384-.143c-2.856-2.5-6.207-3.007-10.359-3.007-.84,0-1.694.018-2.543.036l-.156,0c.281.134.549.264.813.393,3.839,1.948,7.53,6.52,6.833,11.163A.97.97,0,0,1,377.459,183.114ZM352.8,164.054c.089.125.174.25.273.366a.473.473,0,0,1,.121.228c.657,3.436,4.33,4.71,7.579,5.832l.514.179c1.117.389,2.216.737,3.307,1.081,4.187,1.323,8.151,2.574,11.538,5.845a.149.149,0,0,1,.062.076,9.137,9.137,0,0,1,1.349,3.258c-.138-3.727-3.235-7.284-6.43-8.906a26.077,26.077,0,0,0-2.739-1.171.436.436,0,0,1-.281-.487.448.448,0,0,1,.429-.362c.778,0,1.537-.022,2.306-.04.854-.018,1.707-.04,2.556-.04,3.151,0,6.422.272,9.3,2.02-1.711-1.434-3.883-1.846-6.466-2.185a21.923,21.923,0,0,0-2.811-.165c-1.3,0-2.574.089-3.919.179l-1.2.08a15.184,15.184,0,0,1-4.6-.509c-4.357-1.314-7.9-2.525-10.8-5.251l-.027-.027-.045-.031Z" transform="translate(-351.914 -163.107)" fill="#bd7a43"/>
      </g>
      <g id="Group_1054" data-name="Group 1054" transform="translate(35.992)">
        <path id="Path_88" data-name="Path 88" d="M371.481,168.018c-3.387-5.751-10.649-9.206-17.133-10.064-.366-.049-.934.639-.492.858,2.856,1.381,6.086,1.989,9,3.316a21.027,21.027,0,0,1,8.12,6.31C371.141,168.657,371.611,168.232,371.481,168.018Z" transform="translate(-353.26 -157.51)" fill="#ebd9b3"/>
        <path id="Path_89" data-name="Path 89" d="M371.434,169.285h0a.608.608,0,0,1-.474-.237,20.686,20.686,0,0,0-7.941-6.18,40.869,40.869,0,0,0-4.277-1.56A36.478,36.478,0,0,1,354,159.552a.707.707,0,0,1-.38-.822,1.164,1.164,0,0,1,1.117-.871c5.715.755,13.7,3.906,17.455,10.278a.647.647,0,0,1-.018.67A.919.919,0,0,1,371.434,169.285Zm-16.9-10.457a37.319,37.319,0,0,0,4.469,1.649,40.06,40.06,0,0,1,4.37,1.591,22.125,22.125,0,0,1,6.976,4.92c-3.9-5.041-10.729-7.592-15.73-8.258A.428.428,0,0,0,354.538,158.828Z" transform="translate(-353.598 -157.853)" fill="#bd7a43"/>
      </g>
      <g id="Group_1055" data-name="Group 1055" transform="translate(39.388 4.652)">
        <path id="Path_90" data-name="Path 90" d="M356.37,164.014c-.367-1.645-.3-3.454-1.242-4.9-.223-.353-.773.125-.652.456,1.238,3.584,1.394,7.333,3.289,10.729.116.2.411-.076.358-.246C357.545,168.022,356.821,166.078,356.37,164.014Z" transform="translate(-354.008 -158.569)" fill="#ebd9b3"/>
        <path id="Path_91" data-name="Path 91" d="M358.221,171.126h0a.573.573,0,0,1-.491-.295,24.33,24.33,0,0,1-2.225-6.672,36.229,36.229,0,0,0-1.1-4.12.779.779,0,0,1,.13-.751.8.8,0,0,1,1.309-.1,8.314,8.314,0,0,1,1.059,3.575c.076.514.147,1,.25,1.475.273,1.291.684,2.574,1.068,3.812q.349,1.093.679,2.2a.689.689,0,0,1-.139.581A.673.673,0,0,1,358.221,171.126Zm-2.945-11.163a19.925,19.925,0,0,1,.657,2.19A6.4,6.4,0,0,0,355.276,159.963Z" transform="translate(-354.358 -158.894)" fill="#bd7a43"/>
      </g>
      <g id="Group_1056" data-name="Group 1056" transform="translate(41.172 48.134)">
        <path id="Path_92" data-name="Path 92" d="M359.931,186.062c-2.261-2.565-2.976-6.524-3.168-9.791-.139-2.565.384-5.059-.979-7.369-.313-.523-1.037.188-.916.63.8,3.217.063,6.529.751,9.791.55,2.543,1.837,5.483,3.892,7.159C359.712,186.652,360.106,186.263,359.931,186.062Z" transform="translate(-354.416 -168.298)" fill="#ebd9b3"/>
        <path id="Path_93" data-name="Path 93" d="M359.968,187.286h0a.645.645,0,0,1-.4-.139,13.4,13.4,0,0,1-4.031-7.409,22.7,22.7,0,0,1-.349-4.826,21.1,21.1,0,0,0-.4-4.951,1.077,1.077,0,0,1,.232-.907A.894.894,0,0,1,356.51,169a10.1,10.1,0,0,1,1.014,5.586c-.009.652-.018,1.323.018,1.98.255,4.308,1.274,7.512,3.052,9.532a.612.612,0,0,1,.089.706A.8.8,0,0,1,359.968,187.286Zm-4.183-17.772a.483.483,0,0,0-.147.246,21.41,21.41,0,0,1,.438,5.148,22.579,22.579,0,0,0,.322,4.648,14.051,14.051,0,0,0,2.382,5.479,19.206,19.206,0,0,1-2.109-8.415c-.045-.693-.027-1.376-.018-2.042A9.454,9.454,0,0,0,355.786,169.514Z" transform="translate(-354.757 -168.624)" fill="#bd7a43"/>
      </g>
    </g>
    <g id="Group_1058" data-name="Group 1058" transform="translate(377.067 130.987)">
      <path id="Path_94" data-name="Path 94" d="M355,153.5s2.637-10.542,15.587-11.86,23.269,13.621,19.761,31.625-11.637,38.431-14.063,45.237-5.7,18.009-11.632,25.253-17.571,24.377-16.472,34.257c0,0-.358,1.689.666.956s2.19-14.349,9.362-23.135,10.108-11.565,12.3-14.93c0,0-2.784,20.056,2.2,32.644s16.248,25.914,22.692,30.311c0,0,1.752.876.733-1.175s-16.4-17.714-19.77-36.889-.88-24.31-.88-24.31-.29,2.784,5.715,8.79,16.4,13.321,16.838,20.2c0,0,2.051-3.664-3.955-12.155s-18.889-10.1-16.986-24.453,17.133-40.107,19.47-65.878-9.8-37.332-27.081-36.894-24.734,18.156-25.043,18.447C344.16,149.838,355,153.5,355,153.5Z" transform="translate(-344.011 -130.648)" fill="#ebd9b3"/>
      <path id="Path_95" data-name="Path 95" d="M396.408,304.818a2.21,2.21,0,0,1-.862-.232c-6.1-4.147-17.71-17.379-22.911-30.539-4.111-10.385-2.958-25.954-2.427-31.125-1.055,1.43-2.341,2.918-4.156,5.032-1.832,2.109-4.093,4.732-7.154,8.5-5.036,6.153-7.105,14.827-8.214,19.493-.612,2.534-.84,3.423-1.251,3.718-.5.358-.947.335-1.211.013a1.864,1.864,0,0,1-.148-1.345c-1.05-10,10.377-26.938,16.575-34.517,5.076-6.2,8.231-15.408,10.533-22.129.367-1.064.706-2.069,1.032-2.99.375-1.05.88-2.409,1.484-4.04,3.343-9.063,9.59-25.928,12.557-41.144,1.823-9.389-.094-18.657-5.148-24.8-3.763-4.558-8.87-6.846-14.139-6.305-12.508,1.278-15.189,11.427-15.216,11.534a.452.452,0,0,1-.215.273.418.418,0,0,1-.349.036c-10.685-3.615-10.774-3.968-10.832-4.25a.491.491,0,0,1,.121-.433h0s.054-.121.138-.308c7.928-15.538,19.193-18.112,25.2-18.264,8.464-.2,15.538,2.471,20.355,7.74,5.872,6.435,8.361,16.682,7.181,29.632-1.394,15.3-7.181,30.258-12.28,43.458-3.454,8.924-6.43,16.628-7.2,22.438-1.233,9.277,3.866,13.067,9.259,17.075,2.74,2.042,5.595,4.16,7.637,7.065,6.1,8.62,4.076,12.459,3.991,12.624a.453.453,0,0,1-.483.215.432.432,0,0,1-.34-.4c-.331-5.077-6.475-10.591-11.9-15.457-1.738-1.564-3.387-3.043-4.808-4.464-3.405-3.4-4.826-5.818-5.42-7.311-.5,2.7-.988,9.21,1.336,22.442,2.721,15.515,13.281,28.618,17.786,34.217a23.1,23.1,0,0,1,1.939,2.556c.393.782.469,1.291.241,1.645A.763.763,0,0,1,396.408,304.818ZM370.842,240.8a.505.505,0,0,1,.161.027.46.46,0,0,1,.286.474c-.036.2-2.7,20.091,2.163,32.425,5.134,13,16.593,26.048,22.527,30.11a3.029,3.029,0,0,0,.362.1,2.322,2.322,0,0,0-.264-.719,26.8,26.8,0,0,0-1.832-2.4c-4.549-5.648-15.216-18.88-17.973-34.615-3.352-19.1-.952-24.359-.845-24.569a.439.439,0,0,1,.523-.228.434.434,0,0,1,.313.46c0,.022-.121,2.735,5.577,8.433,1.417,1.408,3.048,2.878,4.786,4.429,4.661,4.192,9.871,8.853,11.605,13.464-.192-1.89-1.1-4.934-4.169-9.273-1.984-2.793-4.768-4.871-7.463-6.873-5.349-3.986-10.9-8.106-9.6-17.893.787-5.912,3.781-13.67,7.253-22.643,5.081-13.147,10.841-28.05,12.231-43.222,1.144-12.7-1.256-22.715-6.967-28.957-4.634-5.077-11.467-7.659-19.68-7.458-5.814.148-16.7,2.659-24.431,17.79-.009.027-.036.058-.045.089,1.269.6,6.279,2.364,9.688,3.521.706-2.074,4.268-10.56,15.833-11.73,5.568-.581,10.953,1.823,14.908,6.614,5.219,6.341,7.208,15.882,5.327,25.53-2.976,15.279-9.237,32.193-12.6,41.278-.6,1.622-1.1,2.981-1.475,4.022-.322.921-.661,1.922-1.028,2.985-2.333,6.784-5.51,16.074-10.685,22.4-7.132,8.71-17.379,24.94-16.365,33.931a.393.393,0,0,1-.018.143,2.754,2.754,0,0,0-.054.518l.036-.018a20.126,20.126,0,0,0,.9-3.209c1.126-4.728,3.222-13.531,8.379-19.846,3.083-3.772,5.353-6.4,7.177-8.513A60.674,60.674,0,0,0,370.475,241,.449.449,0,0,1,370.842,240.8Z" transform="translate(-344.344 -130.987)" fill="#bd7a43"/>
    </g>
    <path id="Path_96" data-name="Path 96" d="M366.364,154.871c-3.879,6.408-9.21,11.766-13.581,17.844a37.83,37.83,0,0,0-5.867,10.971,29.378,29.378,0,0,0-1.126,7.061c1.229-4.938,3.378-12.07,7.74-17.424,6.39-7.816,9.4-10.877,11.543-13.831C365.5,157.945,366.065,156.435,366.364,154.871Z" transform="translate(37.736 82.849)" fill="#ebd9b3" style="mix-blend-mode: multiply;isolation: isolate"/>
    <path id="Path_97" data-name="Path 97" d="M376.367,265.793c-3.36-19.184-.88-24.31-.88-24.31a1.371,1.371,0,0,0,.027.313.273.273,0,0,1,.031-.125.435.435,0,0,1,.84,0c1.363,4.156,4.782,7.025,8.03,9.742a119.309,119.309,0,0,1,10.479,9.393,19.631,19.631,0,0,1,2.368,3.07,29.856,29.856,0,0,0-3.177-5.555c-6.006-8.486-18.889-10.1-16.986-24.453s17.133-40.107,19.47-65.878-9.8-37.332-27.081-36.894-24.734,18.156-25.043,18.447C344.16,149.838,355,153.5,355,153.5s2.637-10.542,15.587-11.86,23.269,13.621,19.761,31.625a181.185,181.185,0,0,1-4.54,17.79,13.866,13.866,0,0,1,3.222,1.148.446.446,0,0,1,.156.6c-9.1,20.489-18.233,42.922-16.347,65.82A65.5,65.5,0,0,0,396.4,303.344a3.277,3.277,0,0,0-.259-.661C395.1,300.636,379.736,284.969,376.367,265.793Z" transform="translate(33.056 0.339)" fill="#ebd9b3" style="mix-blend-mode: multiply;isolation: isolate"/>
    <path id="Path_98" data-name="Path 98" d="M351.862,155.555c.036-.241-.3-.1-.331.063-2.574,14.22-1.01,28.511,5.733,41.354.081.17.366-.058.29-.2C351.41,184.159,350.065,169.35,351.862,155.555Z" transform="translate(53.588 84.775)" fill="#ebd9b3" style="mix-blend-mode: screen;isolation: isolate"/>
    <g id="Group_1059" data-name="Group 1059" transform="translate(377.067 130.987)">
      <path id="Path_99" data-name="Path 99" d="M370.588,141.638c12.951-1.318,23.269,13.621,19.761,31.625a199.29,199.29,0,0,1-5.97,22.375,8.425,8.425,0,0,0,5.385,1.086c3.168-9.161,5.925-18.943,6.806-28.734,2.35-25.767-9.8-37.332-27.081-36.894s-24.734,18.156-25.043,18.447C344.16,149.838,355,153.5,355,153.5S357.638,142.956,370.588,141.638Z" transform="translate(-344.011 -130.648)" fill="#d8df67"/>
      <path id="Path_100" data-name="Path 100" d="M389.007,197.568a8.587,8.587,0,0,1-4.522-1.22.444.444,0,0,1-.192-.509,197.509,197.509,0,0,0,5.961-22.326c1.823-9.389-.094-18.657-5.148-24.8-3.763-4.558-8.87-6.846-14.139-6.305-12.508,1.278-15.189,11.427-15.216,11.534a.452.452,0,0,1-.215.273.418.418,0,0,1-.349.036c-10.685-3.615-10.774-3.968-10.832-4.25a.491.491,0,0,1,.121-.433h0s.054-.121.138-.308c7.928-15.538,19.193-18.112,25.2-18.264,8.464-.2,15.538,2.471,20.355,7.74,5.872,6.435,8.361,16.682,7.181,29.632-.769,8.419-2.94,17.584-6.851,28.841a.408.408,0,0,1-.349.295A10.9,10.9,0,0,1,389.007,197.568Zm-3.772-1.8a8.027,8.027,0,0,0,4.54.885c3.812-11.065,5.943-20.087,6.7-28.368,1.144-12.7-1.256-22.715-6.967-28.957-4.634-5.077-11.467-7.659-19.68-7.458-5.814.148-16.7,2.659-24.431,17.79-.009.027-.036.058-.045.089,1.269.6,6.279,2.364,9.688,3.521.706-2.074,4.268-10.56,15.833-11.73,5.568-.581,10.953,1.823,14.908,6.614,5.219,6.341,7.208,15.882,5.327,25.53A199.33,199.33,0,0,1,385.236,195.772Z" transform="translate(-344.344 -130.987)" fill="#a8c552"/>
    </g>
    <path id="Path_101" data-name="Path 101" d="M390.778,141.2c-4.174-4.96-10.046-8.71-16.655-9.134a20.669,20.669,0,0,0-10.944,2.006c-3,1.591-5.595,3.79-8.517,5.506-1.868,1.1-4.1,2.422-6.355,1.823a2,2,0,0,1-.733-.384,48.627,48.627,0,0,0-3.128,5.318C344.16,146.63,355,150.29,355,150.29s2.637-10.542,15.587-11.86,23.269,13.621,19.761,31.625a199.29,199.29,0,0,1-5.97,22.375,8.425,8.425,0,0,0,5.385,1.086c3.168-9.161,5.925-18.943,6.806-28.734a58.155,58.155,0,0,0-.058-12.168A29.422,29.422,0,0,0,390.778,141.2Z" transform="translate(33.056 3.547)" fill="#b4d16b" opacity="0.6" style="mix-blend-mode: multiply;isolation: isolate"/>
    <path id="Path_102" data-name="Path 102" d="M379.664,189.5a7.835,7.835,0,0,0,1.622.733c2.453-8.839,6.243-17.374,7.2-26.535.773-7.44-.393-15.654-4.621-21.977a19.734,19.734,0,0,0-22.116-8.106,25.748,25.748,0,0,0-11.19,6.623,28.764,28.764,0,0,0-4.764,5.573c2.346.827,4.487,1.551,4.487,1.551s2.637-10.542,15.587-11.86,23.269,13.621,19.761,31.625A199.287,199.287,0,0,1,379.664,189.5Z" transform="translate(37.771 6.473)" fill="#b4d16b" opacity="0.6" style="mix-blend-mode: multiply;isolation: isolate"/>
    <g id="Group_1063" data-name="Group 1063" transform="translate(334.911 146.915)">
      <g id="Group_1060" data-name="Group 1060" transform="translate(11.358 8.46)">
        <path id="Path_103" data-name="Path 103" d="M356.711,136.543s-18,15.81-19.108,40.187,16.034,23.492,23.935,18.661S356.711,136.543,356.711,136.543Z" transform="translate(-337.109 -136.101)" fill="#91ba59"/>
        <path id="Path_104" data-name="Path 104" d="M352.174,198.9h0a13.276,13.276,0,0,1-9.88-3.977c-3.544-3.7-5.157-9.72-4.791-17.871,1.1-24.283,19.077-40.344,19.26-40.5a.442.442,0,0,1,.719.228c.523,2.221,12.714,54.394,4.634,59.332A19.616,19.616,0,0,1,352.174,198.9Zm4.616-61.177c-3,2.887-17.437,17.857-18.407,39.365-.358,7.905,1.18,13.7,4.549,17.231a12.528,12.528,0,0,0,9.242,3.7,19,19,0,0,0,9.487-2.663C367.815,191.6,360.4,153.183,356.791,137.721Z" transform="translate(-337.453 -136.444)" fill="#6faa57"/>
      </g>
      <path id="Path_105" data-name="Path 105" d="M355.159,136.543s-.456.4-1.233,1.171c-2.44,2.444-4.424,6.145-6.073,9.156a49.639,49.639,0,0,0-4.156,10.189,56.937,56.937,0,0,0-2.234,22.1,49.349,49.349,0,0,0,1.1,6.082,58.677,58.677,0,0,0,1.578,5.707c.156.465,1.721,4.053.576,3.879-2.516-.384-4.942-2.578-6.721-4.741,4.572,10.359,15.962,8.991,21.986,5.3C367.9,190.561,355.159,136.543,355.159,136.543Z" transform="translate(-324.2 -127.641)" fill="#91ba59" style="mix-blend-mode: multiply;isolation: isolate"/>
      <g id="Group_1061" data-name="Group 1061" transform="translate(0 13.728)">
        <path id="Path_106" data-name="Path 106" d="M363.332,137.721a78.6,78.6,0,0,1-14.054,6.591c-7.244,2.413-14.05,9.661-14.269,16.691,0,0,.219,1.095,1.318.438s3.07-4.831,8.124-5.492,11.2.223,14.926-6.149A28.524,28.524,0,0,0,363.332,137.721Z" transform="translate(-334.571 -137.283)" fill="#a2c629"/>
        <path id="Path_107" data-name="Path 107" d="M336.028,162.429h0a1.2,1.2,0,0,1-1.117-1v-.1c.21-6.815,6.739-14.483,14.568-17.093a78.278,78.278,0,0,0,13.965-6.547.444.444,0,0,1,.447,0,.468.468,0,0,1,.223.4,28.958,28.958,0,0,1-4,12.285c-3.2,5.43-8.129,5.792-12.5,6.109-.97.067-1.877.138-2.766.255-3.589.465-5.51,2.744-6.784,4.245a5.586,5.586,0,0,1-1.175,1.184A1.671,1.671,0,0,1,336.028,162.429Zm-.246-1.14c.027.08.107.264.246.264h0a.864.864,0,0,0,.411-.147,6.083,6.083,0,0,0,.943-1,11.325,11.325,0,0,1,7.347-4.549c.916-.121,1.846-.183,2.82-.259,4.348-.317,8.852-.648,11.784-5.675a29.475,29.475,0,0,0,3.83-11.042,79.253,79.253,0,0,1-13.406,6.189C342.289,147.557,336.028,154.828,335.782,161.289Z" transform="translate(-334.911 -137.623)" fill="#559649"/>
      </g>
      <path id="Path_108" data-name="Path 108" d="M350.449,143.629a20.575,20.575,0,0,1,2.923-.308.447.447,0,0,1,.447.442c-.255,3.924-4.478,5.948-7.525,7.561-4.616,2.435-9.416,5.059-11.074,10.291a2.6,2.6,0,0,0,.375-.174c1.09-.661,3.07-4.831,8.124-5.492s11.2.223,14.926-6.149a28.524,28.524,0,0,0,3.955-12.079A81.161,81.161,0,0,1,350.449,143.629Z" transform="translate(-333.839 -123.555)" fill="#a2c629" style="mix-blend-mode: multiply;isolation: isolate"/>
      <g id="Group_1062" data-name="Group 1062" transform="translate(18.42)">
        <path id="Path_109" data-name="Path 109" d="M366.594,134.762s-11.413-1.975-18.876,10.546-8.79,24.154-8.562,37.108c.21,12.959,7.463,23.939,18.653,25.476,11.212,1.537,18.447-7.029,18.447-16.691s-1.524-12.955.885-18.666,6.154-15.154,3.508-25.91S366.594,134.762,366.594,134.762Z" transform="translate(-338.687 -134.212)" fill="#c5d872"/>
        <path id="Path_110" data-name="Path 110" d="M360.738,208.848a19.508,19.508,0,0,1-2.637-.179c-10.989-1.51-18.818-12.159-19.046-25.905-.228-13.357,1.153-24.815,8.625-37.345,5.845-9.809,14.193-10.868,17.5-10.868a11.918,11.918,0,0,1,1.841.121c.076,0,11.722,1.247,14.4,12.182,2.766,11.3-1.493,21.356-3.535,26.2-1.6,3.772-1.426,6.426-1.135,10.814.138,2.136.286,4.554.286,7.677a18.053,18.053,0,0,1-4.4,12.061A15.651,15.651,0,0,1,360.738,208.848Zm4.442-73.417c-3.159,0-11.118,1.014-16.74,10.434-7.378,12.352-8.727,23.675-8.5,36.885.219,13.3,7.744,23.6,18.277,25.047a15.076,15.076,0,0,0,13.781-4.773,17.254,17.254,0,0,0,4.174-11.485c0-3.092-.147-5.5-.29-7.615-.286-4.366-.469-7.253,1.2-11.226,2.016-4.741,6.2-14.622,3.49-25.637-2.52-10.336-13.554-11.511-13.656-11.52A10.969,10.969,0,0,0,365.18,135.431Z" transform="translate(-339.033 -134.551)" fill="#6faa57"/>
      </g>
      <path id="Path_111" data-name="Path 111" d="M380.649,146.627c-2.637-10.765-14.054-11.865-14.054-11.865s-11.413-1.975-18.876,10.546-8.79,24.154-8.562,37.108c.21,12.959,7.463,23.939,18.653,25.476,11.212,1.537,18.447-7.029,18.447-16.691s-1.524-12.955.885-18.666S383.294,157.383,380.649,146.627Zm-13.8,3.075c-1.005,5.5-4.2,10.466-5.97,15.73a40.308,40.308,0,0,0-1.989,12.2,63.049,63.049,0,0,1-.925,10.7c-.55,2.628-1.434,5.841-3.8,7.432a6.491,6.491,0,0,1-7.959-.791c-2.82-2.726-3.874-6.775-4.406-10.537a55.142,55.142,0,0,1,1.292-20.784c2.248-9.228,5.059-19.488,14.662-23.519,2.61-1.1,6.118-.764,7.856,1.7C367.207,144.093,367.327,147.06,366.849,149.7Z" transform="translate(-320.267 -134.212)" fill="#c5d872" opacity="0.6" style="mix-blend-mode: multiply;isolation: isolate"/>
      <path id="Path_112" data-name="Path 112" d="M379.576,146.625c-2.637-10.765-14.054-11.865-14.054-11.865a15.937,15.937,0,0,0-5.644.331,14.482,14.482,0,0,1,8.464,1.636c4.3,2.266,6.462,5.979,7.159,10.721.653,4.522-2.149,8.549-4.268,12.3-3.834,6.8-4.5,14.671-5.063,22.295-.375,5.005.085,10.747-2.261,15.359-3.579,7.043-13.563,8.41-19.122,2.873a23.44,23.44,0,0,1-5.345-8.866c2.61,8.741,8.817,15.319,17.294,16.481,11.212,1.537,18.447-7.029,18.447-16.691s-1.524-12.955.885-18.666S382.221,157.382,379.576,146.625Z" transform="translate(-319.194 -134.211)" fill="#c5d872" opacity="0.6" style="mix-blend-mode: multiply;isolation: isolate"/>
      <path id="Path_113" data-name="Path 113" d="M349.858,137.1c-9.331,10.756-11.3,26.142-8.955,39.741.054.277.438.009.429-.188-.4-13.022,1.7-28.171,8.817-39.37C350.287,137.046,350.023,136.9,349.858,137.1Z" transform="translate(-317.258 -126.044)" fill="#c6d541" opacity="0.9" style="mix-blend-mode: screen;isolation: isolate"/>
      <path id="Path_114" data-name="Path 114" d="M348.923,139.471c-6.024,2.368-11.453,5.787-13.563,12.213-.1.29.241.2.34.022,3.177-5.684,7.427-9.1,13.241-11.945C349.089,139.685,349.142,139.381,348.923,139.471Z" transform="translate(-333.412 -117.543)" fill="#e2e470"/>
      <path id="Path_115" data-name="Path 115" d="M341.04,142.425c.054-.232-.277-.076-.313.067-2.645,8.759-5.166,19.948.112,28.278.125.192.465-.071.375-.255C337.349,161.864,339.181,151.367,341.04,142.425Z" transform="translate(-325.077 -107.649)" fill="#e2e470"/>
    </g>
  </g>
</svg>
